# xmcd
#
# Track frame offsets:
#	150
#	15395
#	35060
#	50925
#	67580
#	86087
#	99965
#	117802
#	136412
#	147120
#	164285
#	181632
#
# Disc length: 2529 seconds
#
# Revision: 1
# Processed by: cddbd v1.5.1PL0 Copyright (c) Steve Scherf et al.
# Submitted via: CDex 1.50Beta5
#
DISCID=9509df0c
DTITLE=風 - 時は流れて…
DYEAR=1990
DGENRE=Pop
TTITLE0=北国列車
TTITLE1=時の流れ
TTITLE2=古都
TTITLE3=何かいいことありそうな明日
TTITLE4=忘れゆく歴史
TTITLE5=三丁目の夕焼け
TTITLE6=あの唄はもう唄わないのですか
TTITLE7=ふるさとの町は今も
TTITLE8=まぶしすぎる街
TTITLE9=あなたへ
TTITLE10=暦の上では
TTITLE11=終りのない唄
EXTD=
EXTT0=
EXTT1=
EXTT2=
EXTT3=
EXTT4=
EXTT5=
EXTT6=
EXTT7=
EXTT8=
EXTT9=
EXTT10=
EXTT11=
PLAYORDER=
